<?xml version="1.0" standalone="no"?>
<!DOCTYPE svg PUBLIC "-//W3C//DTD SVG 20010904//EN"
 "http://www.w3.org/TR/2001/REC-SVG-20010904/DTD/svg10.dtd">
<svg version="1.0" xmlns="http://www.w3.org/2000/svg"
 width="640.000000pt" height="640.000000pt" viewBox="0 0 640.000000 640.000000"
 preserveAspectRatio="xMidYMid meet">

<g transform="translate(0.000000,640.000000) scale(0.100000,-0.100000)"
fill="#22CC22" stroke="#000000" stroke-width="1">
<path d="M2282 5375 c-40 -18 -66 -72 -56 -119 6 -29 58 -104 236 -343 37 -50
68 -96 68 -102 0 -11 -126 -220 -202 -335 -4 -6 -37 19 -81 62 -92 89 -158
122 -242 122 -77 0 -131 -25 -189 -85 -51 -54 -69 -88 -90 -169 -34 -129 -29
-517 10 -818 l15 -119 -37 -56 c-71 -108 -124 -294 -124 -438 0 -133 47 -316
114 -442 l35 -66 -77 7 c-124 10 -222 42 -306 99 -86 59 -196 6 -196 -94 0
-141 356 -277 663 -254 l87 7 0 -30 c0 -21 -6 -32 -17 -36 -58 -16 -232 -28
-346 -23 -102 4 -136 3 -158 -9 -41 -21 -59 -53 -59 -105 0 -62 32 -102 94
-118 92 -23 410 -9 537 24 22 5 29 0 54 -35 64 -92 165 -163 294 -207 66 -22
88 -24 198 -22 l123 3 36 -54 c100 -151 241 -245 405 -271 85 -13 231 -5 291
17 22 8 44 14 48 14 11 0 96 -129 105 -160 19 -65 97 -102 158 -76 107 44 101
155 -18 322 -25 34 -45 67 -45 72 0 5 9 17 20 27 20 18 22 17 128 -88 125
-125 177 -165 289 -219 137 -67 221 -61 258 19 36 75 -1 138 -105 178 -39 15
-96 44 -128 65 -59 40 -162 135 -162 149 0 5 33 28 73 51 85 51 217 181 265
262 88 148 166 374 196 568 5 32 18 44 124 117 484 337 614 539 453 704 -67
68 -136 91 -263 87 -54 -2 -98 -1 -98 3 0 3 14 26 30 53 l30 47 338 -7 c185
-4 338 -8 340 -9 2 -2 -3 -29 -12 -61 -8 -33 -20 -93 -26 -134 -17 -111 -55
-250 -89 -324 -25 -57 -35 -68 -69 -82 -42 -16 -83 -65 -102 -121 -8 -22 -36
-49 -93 -91 -89 -64 -177 -152 -177 -176 0 -16 26 -46 41 -46 5 0 9 -8 9 -18
0 -26 28 -62 49 -62 10 0 23 -11 29 -25 32 -71 139 28 228 211 29 61 63 119
75 130 32 28 61 100 54 132 -4 20 4 50 29 103 45 96 69 186 101 372 30 172 38
197 62 197 22 0 57 28 71 56 6 11 14 43 17 70 8 59 21 36 -240 391 -104 142
-304 416 -444 608 -493 678 -479 661 -529 675 -22 6 -185 10 -412 10 -458 1
-1622 18 -1641 24 -8 3 -29 -1 -47 -9z m1232 -225 c726 -10 790 -12 802 -28 7
-9 94 -127 192 -262 98 -135 254 -348 347 -475 290 -397 447 -616 444 -619 -2
-2 -229 0 -504 5 -275 4 -665 8 -867 8 l-368 1 -37 48 c-21 26 -89 117 -150
202 -62 85 -154 211 -204 280 -281 383 -619 849 -619 853 0 2 39 2 88 1 48 -2
442 -9 876 -14z m-627 -821 c114 -157 270 -370 345 -475 76 -104 155 -209 177
-234 l39 -45 507 -7 c279 -3 509 -9 512 -12 8 -8 -209 -365 -242 -398 -46 -45
-114 -85 -180 -104 -90 -27 -291 -25 -408 4 -266 66 -515 208 -734 416 -262
250 -413 539 -413 792 l0 75 88 139 c48 77 90 138 94 137 3 -1 100 -131 215
-288z m-818 64 c54 -46 211 -257 222 -298 84 -311 193 -500 422 -734 269 -273
600 -462 928 -528 125 -25 330 -23 436 5 166 43 264 110 355 244 l63 93 75 22
c114 33 240 28 240 -11 0 -29 -282 -258 -494 -399 -103 -69 -116 -92 -116
-196 0 -124 -100 -404 -185 -519 -49 -68 -145 -143 -230 -183 l-60 -27 -30 20
c-89 59 -192 87 -248 69 -96 -32 -116 -155 -35 -212 l29 -21 -28 -30 c-98
-104 -258 -134 -390 -73 -56 25 -138 96 -165 142 l-16 28 91 0 c115 1 156 15
204 70 50 56 158 246 199 349 19 44 37 81 41 81 4 -1 34 -9 66 -19 49 -15 65
-16 107 -6 72 17 123 59 154 124 23 49 30 56 56 56 77 0 210 81 245 151 22 41
19 111 -5 142 -25 31 -80 51 -120 42 -16 -3 -49 -26 -74 -51 -44 -43 -47 -44
-109 -44 -62 0 -169 25 -298 70 -69 25 -106 25 -145 1 -38 -23 -50 -53 -63
-161 -19 -164 -97 -369 -194 -515 -31 -47 -35 -50 -72 -48 -52 4 -87 31 -103
79 -18 57 -63 94 -113 94 -116 0 -162 -106 -100 -228 l20 -40 -51 -12 c-120
-29 -262 12 -337 97 -43 48 -81 135 -81 184 0 27 3 30 23 24 24 -8 73 -39 126
-82 27 -22 44 -28 83 -28 44 0 53 4 84 37 64 71 42 141 -71 227 -88 66 -158
92 -268 99 l-88 5 -43 48 c-87 97 -152 261 -163 412 -9 135 25 260 103 372 35
52 37 60 36 123 -1 37 -6 92 -12 122 -30 176 -47 654 -27 772 9 52 40 98 66
98 10 0 37 -17 60 -37z"/>
<path d="M2354 3176 c-32 -32 -34 -39 -34 -98 0 -68 30 -147 69 -182 18 -17
18 -18 0 -67 -23 -60 -24 -93 -4 -150 52 -146 237 -193 350 -88 l43 40 29 -30
c55 -55 141 -50 184 10 32 45 45 127 30 182 -27 97 -118 160 -296 207 -44 12
-99 30 -122 40 -36 16 -43 23 -43 48 0 35 -37 92 -70 109 -14 7 -42 13 -63 13
-31 0 -46 -7 -73 -34z"/>
<path d="M2246 1509 c-41 -32 -59 -75 -52 -121 23 -143 170 -267 335 -284 60
-7 158 9 203 32 54 28 74 109 41 165 -28 47 -66 59 -168 52 -83 -5 -93 -3
-125 19 -24 16 -37 35 -43 60 -13 55 -66 98 -121 98 -29 0 -52 -7 -70 -21z"/>
</g>
</svg>
